<svg id="svg" xmlns="http://www.w3.org/2000/svg" xmlns:xlink="http://www.w3.org/1999/xlink" width="400" height="266.6666666666667" viewBox="0, 0, 400,266.6666666666667"><g id="svgg"><path id="path0" d="M215.595 72.159 C 190.147 75.545,180.505 79.538,112.671 114.779 C 89.942 126.587,65.029 139.504,57.310 143.483 C 49.591 147.462,42.924 150.974,42.495 151.288 C 42.066 151.601,34.610 155.426,25.926 159.786 C 17.242 164.147,10.136 167.863,10.136 168.044 C 10.136 168.225,43.153 168.375,83.507 168.376 C 123.861 168.378,158.159 168.614,159.725 168.902 C 163.068 169.516,166.604 171.796,177.916 180.632 C 187.620 188.212,186.816 187.912,187.507 184.211 C 191.003 165.489,214.208 144.164,240.424 135.580 C 272.317 125.137,345.896 131.089,373.353 146.332 C 378.914 149.419,379.346 149.346,378.613 145.438 C 374.667 124.407,337.125 95.906,313.367 95.906 C 308.977 95.906,308.507 95.704,302.410 91.183 C 281.272 75.510,246.943 67.988,215.595 72.159 M287.600 103.018 C 291.311 106.500,295.496 109.902,296.900 110.578 C 300.376 112.252,298.733 113.095,290.962 113.624 C 283.694 114.119,280.314 112.930,277.096 108.750 C 275.863 107.148,273.810 104.607,272.534 103.103 C 270.595 100.818,270.467 100.438,271.754 100.794 C 272.601 101.028,274.347 101.444,275.634 101.719 C 276.920 101.994,278.587 102.401,279.337 102.624 C 280.976 103.110,281.313 99.169,279.766 97.622 C 279.038 96.894,279.055 96.686,279.841 96.686 C 280.397 96.686,283.888 99.535,287.600 103.018 M218.713 100.748 L 221.832 101.682 216.764 102.195 C 209.923 102.888,204.498 105.104,193.593 111.658 C 181.653 118.835,171.550 123.291,158.401 127.179 C 152.548 128.910,143.438 131.741,138.158 133.470 C 125.866 137.495,125.864 137.233,138.130 130.196 C 143.718 126.990,153.259 121.467,159.331 117.923 C 188.223 101.059,204.262 96.420,218.713 100.748 M213.350 177.031 C 199.594 191.890,203.264 201.358,227.308 213.040 C 232.107 215.371,232.266 214.642,228.658 206.834 C 224.416 197.654,221.529 188.203,220.395 179.786 C 219.243 171.234,218.857 171.083,213.350 177.031 " stroke="none" fill="#ff0000" fill-rule="evenodd"></path></g></svg>